<svg xmlns="http://www.w3.org/2000/svg" version="1.1" xmlns:xlink="http://www.w3.org/1999/xlink" xmlns:svgjs="http://svgjs.dev/svgjs" width="1440" height="560" preserveAspectRatio="none" viewBox="0 0 1440 560"><g mask="url(&quot;#SvgjsMask1004&quot;)" fill="none"><rect width="1440" height="560" x="0" y="0" fill="rgba(254, 123, 10, 1)"></rect><path d="M0,537.105C100.623,558.028,219.247,525.359,289.296,450.153C358.018,376.372,309.654,252.257,350.98,160.287C391.895,69.232,529.996,24.166,525.523,-75.559C521.145,-173.165,408.266,-227.043,330.929,-286.751C266.247,-336.689,188.025,-355.271,115.204,-392.347C21.947,-439.829,-52.961,-544.875,-157.168,-535.264C-261.189,-525.67,-351.289,-438.361,-398.153,-345.001C-442.095,-257.462,-406.641,-154.599,-397.186,-57.107C-389.9,18.016,-379.564,90.377,-349.226,159.486C-318.502,229.474,-272.989,287.909,-221.092,344.025C-153.286,417.344,-97.776,516.774,0,537.105" fill="#d56301"></path><path d="M1440 908.308C1511.296 905.3109999999999 1589.156 924.0509999999999 1648.352 884.202 1707.301 844.519 1721.656 766.672 1748.274 700.784 1773.695 637.86 1806.077 575.819 1800.252 508.204 1794.258 438.624 1762.12 373.279 1715.576 321.212 1669.458 269.621 1602.409 248.611 1540.522 217.652 1464.27 179.507 1394.094 102.41199999999998 1310.366 118.50900000000001 1227.067 134.52300000000002 1190.84 231.86599999999999 1134.903 295.632 1078.569 359.851 992.4300000000001 409.348 980.9739999999999 494.002 969.527 578.591 1033.532 652.27 1076.675 725.925 1115.751 792.636 1150.983 867.519 1220.079 902.204 1286.975 935.784 1365.215 911.452 1440 908.308" fill="#fe963c"></path></g><defs><mask id="SvgjsMask1004"><rect width="1440" height="560" fill="#ffffff"></rect></mask></defs></svg>